<svg width="24" height="24" viewBox="0 0 24 24" fill="none" xmlns="http://www.w3.org/2000/svg">
<g clip-path="url(#clip0_13932_105790)">
<path d="M18.4667 14.3998C18.4667 14.2665 18.4667 14.1331 18.4667 14.0665C18.4667 13.7331 18.7334 13.4665 19.0667 13.4665C19.4001 13.4665 19.6667 13.7331 19.6667 14.0665C19.6667 14.3331 19.6667 14.5331 19.6667 14.7998C19.6667 15.1331 19.4001 15.3998 19.0667 15.3998C18.7334 15.3998 18.4667 15.1331 18.4667 14.7998C18.4667 14.6665 18.4667 14.5331 18.4667 14.3998Z" fill="white"/>
<path d="M9.85722 18.7999C9.85722 18.6666 9.85722 18.5332 9.85722 18.4666C9.85722 18.1332 10.1239 17.8666 10.4572 17.8666C10.7906 17.8666 11.0572 18.1332 11.0572 18.4666C11.0572 18.7332 11.0572 18.9332 11.0572 19.1999C11.0572 19.5332 10.7906 19.7999 10.4572 19.7999C10.1239 19.7999 9.85722 19.5332 9.85722 19.1999C9.85722 19.0666 9.85722 18.9332 9.85722 18.7999Z" fill="white"/>
<path d="M4.71436 18.7999C4.71436 18.6666 4.71436 18.5332 4.71436 18.4666C4.71436 18.1332 4.98103 17.8666 5.31436 17.8666C5.6477 17.8666 5.91436 18.1332 5.91436 18.4666C5.91436 18.7332 5.91436 18.9332 5.91436 19.1999C5.91436 19.5332 5.6477 19.7999 5.31436 19.7999C4.98103 19.7999 4.71436 19.5332 4.71436 19.1999C4.71436 19.0666 4.71436 18.9332 4.71436 18.7999Z" fill="white"/>
<path fill-rule="evenodd" clip-rule="evenodd" d="M14.5167 12.3333C14.5167 10.7857 15.7859 9.5166 17.3334 9.5166H21.2001C22.7476 9.5166 24.0167 10.7857 24.0167 12.3333V21.2666C24.0167 22.2142 23.2143 23.0166 22.2667 23.0166H1.86674C0.919193 23.0166 0.116738 22.2142 0.116738 21.2666V16.1999C0.116738 15.1191 0.985858 14.2499 2.06674 14.2499H14.5167V12.3333ZM14.5167 15.7499H2.06674C1.81428 15.7499 1.61674 15.9475 1.61674 16.1999V21.2666C1.61674 21.3126 1.6382 21.3774 1.69707 21.4363C1.75593 21.4951 1.82076 21.5166 1.86674 21.5166H14.5167V15.7499ZM16.0167 21.5166H22.2667C22.3127 21.5166 22.3776 21.4951 22.4364 21.4363C22.4953 21.3774 22.5167 21.3126 22.5167 21.2666V12.3333C22.5167 11.6142 21.9192 11.0166 21.2001 11.0166H17.3334C16.6143 11.0166 16.0167 11.6142 16.0167 12.3333V21.5166Z" fill="white"/>
<path fill-rule="evenodd" clip-rule="evenodd" d="M18.5887 19.5885C18.5577 19.6195 18.5501 19.6501 18.5501 19.6665V21.8665C18.5501 22.2807 18.2143 22.6165 17.8001 22.6165C17.3859 22.6165 17.0501 22.2807 17.0501 21.8665V19.6665C17.0501 18.7856 17.7859 18.0498 18.6667 18.0498H19.6667C20.5476 18.0498 21.2834 18.7856 21.2834 19.6665V21.8665C21.2834 22.2807 20.9476 22.6165 20.5334 22.6165C20.1192 22.6165 19.7834 22.2807 19.7834 21.8665V19.6665C19.7834 19.6501 19.7758 19.6195 19.7447 19.5885C19.7137 19.5575 19.6831 19.5498 19.6667 19.5498H18.6667C18.6504 19.5498 18.6197 19.5575 18.5887 19.5885Z" fill="white"/>
<path fill-rule="evenodd" clip-rule="evenodd" d="M1.04021 2.65348C1.70656 1.71775 2.69539 1.0498 3.86673 1.0498C5.03807 1.0498 6.0269 1.71775 6.69326 2.65348C7.36074 3.59078 7.75008 4.84698 7.75008 6.19981C7.75008 7.55264 7.36074 8.80883 6.69326 9.74614C6.0269 10.6819 5.03807 11.3498 3.86673 11.3498C2.69539 11.3498 1.70656 10.6819 1.04021 9.74613C0.372732 8.80883 -0.0166016 7.55263 -0.0166016 6.19981C-0.0166016 4.84698 0.372732 3.59079 1.04021 2.65348ZM2.26206 3.52359C1.79548 4.17877 1.4834 5.12257 1.4834 6.19981C1.4834 7.27704 1.79549 8.22085 2.26205 8.87603C2.72974 9.53278 3.30758 9.8498 3.86673 9.8498C4.42588 9.8498 5.00372 9.53278 5.47141 8.87602C5.93799 8.22084 6.25008 7.27704 6.25008 6.19981C6.25008 5.12258 5.93799 4.17877 5.47141 3.52359C5.00372 2.86683 4.42588 2.5498 3.86673 2.5498C3.30758 2.5498 2.72974 2.86683 2.26206 3.52359Z" fill="white"/>
<path fill-rule="evenodd" clip-rule="evenodd" d="M3.85722 10.5149C4.27143 10.5149 4.60722 10.8507 4.60722 11.2649V14.6935C4.60722 15.1077 4.27144 15.4435 3.85722 15.4435C3.44301 15.4435 3.10722 15.1077 3.10722 14.6935L3.10722 11.2649C3.10722 10.8507 3.44301 10.5149 3.85722 10.5149Z" fill="white"/>
<path fill-rule="evenodd" clip-rule="evenodd" d="M8.50413 5.46671C9.08647 4.65143 9.95859 4.05917 11 4.05917C12.0415 4.05917 12.9136 4.65143 13.4959 5.46671C14.0793 6.28343 14.4167 7.37327 14.4167 8.54251C14.4167 9.71174 14.0793 10.8016 13.4959 11.6183C12.9136 12.4336 12.0415 13.0258 11 13.0258C9.95859 13.0258 9.08647 12.4336 8.50413 11.6183C7.92075 10.8016 7.58337 9.71174 7.58337 8.54251C7.58337 7.37327 7.92075 6.28343 8.50413 5.46671ZM9.72472 6.33857C9.34295 6.87305 9.08337 7.64987 9.08337 8.54251C9.08337 9.43514 9.34295 10.212 9.72472 10.7464C10.1075 11.2824 10.5687 11.5258 11 11.5258C11.4313 11.5258 11.8925 11.2824 12.2753 10.7464C12.6571 10.212 12.9167 9.43514 12.9167 8.54251C12.9167 7.64987 12.6571 6.87305 12.2753 6.33857C11.8925 5.80264 11.4313 5.55917 11 5.55917C10.5687 5.55917 10.1075 5.80264 9.72472 6.33857Z" fill="white"/>
<path fill-rule="evenodd" clip-rule="evenodd" d="M10.7144 12.2292C11.1286 12.2292 11.4644 12.565 11.4644 12.9792V14.6935C11.4644 15.1077 11.1286 15.4435 10.7144 15.4435C10.3002 15.4435 9.96436 15.1077 9.96436 14.6935V12.9792C9.96436 12.565 10.3002 12.2292 10.7144 12.2292Z" fill="white"/>
</g>
<defs>
<clipPath id="clip0_13932_105790">
<rect width="24" height="24" fill="white"/>
</clipPath>
</defs>
</svg>
