<svg width="24" height="24" viewBox="0 0 24 24" fill="none" xmlns="http://www.w3.org/2000/svg">
<path d="M23.9645 23.0723L22.7929 19.5266C23.1705 19.3484 23.4865 19.0619 23.7009 18.7034C23.9154 18.3449 24.0184 17.9306 23.997 17.5133C23.9756 17.096 23.8307 16.6945 23.5807 16.3599C23.3307 16.0253 22.987 15.7727 22.5932 15.6342V7.5163L23.6051 7.00976C23.7212 6.95068 23.8187 6.86056 23.8868 6.74939C23.955 6.63823 23.991 6.51035 23.991 6.37992C23.991 6.2495 23.955 6.12162 23.8868 6.01045C23.8187 5.89928 23.7212 5.80917 23.6051 5.75008L12.2953 0.0782024C12.199 0.0268554 12.0915 0 11.9824 0C11.8733 0 11.7659 0.0268554 11.6696 0.0782024L0.386436 5.75008C0.267738 5.805 0.167823 5.8937 0.0991612 6.00512C0.0304992 6.11654 -0.003869 6.24574 0.000346061 6.37659C0.00122844 6.50728 0.0376313 6.63526 0.105649 6.74681C0.173668 6.85836 0.270734 6.94926 0.386436 7.00976L4.21405 8.91594V13.4081C4.2119 13.5083 4.23233 13.6076 4.27382 13.6988C4.31531 13.7899 4.37679 13.8706 4.45369 13.9347C4.58682 14.0546 7.88855 16.9206 11.9824 16.9206C16.0763 16.9206 19.378 14.0546 19.5112 13.9347C19.5881 13.8706 19.6496 13.7899 19.691 13.6988C19.7325 13.6076 19.753 13.5083 19.7508 13.4081V8.91594L21.1554 8.24944V15.6342C20.7616 15.7727 20.4179 16.0253 20.1679 16.3599C19.9179 16.6945 19.773 17.096 19.7516 17.5133C19.7302 17.9306 19.8333 18.3449 20.0477 18.7034C20.2621 19.0619 20.5782 19.3484 20.9557 19.5266L19.7841 23.0723C19.7495 23.178 19.7403 23.2904 19.7573 23.4003C19.7743 23.5102 19.817 23.6146 19.8819 23.7049C19.9467 23.7951 20.032 23.8688 20.1307 23.9199C20.2294 23.971 20.3387 23.998 20.4498 23.9987H23.2523C23.3672 24.0056 23.4821 23.9842 23.5869 23.9364C23.6917 23.8886 23.7833 23.8158 23.8535 23.7245C23.9238 23.6331 23.9706 23.5259 23.99 23.4122C24.0093 23.2985 24.0006 23.1818 23.9645 23.0723ZM18.3795 13.0749C17.6007 13.6814 14.9979 15.5142 12.0157 15.5142C9.03351 15.5142 6.43073 13.6814 5.6519 13.0749V9.61576L11.7029 12.6283C11.8001 12.6765 11.9072 12.7016 12.0157 12.7016C12.1242 12.7016 12.2313 12.6765 12.3286 12.6283L18.3795 9.61576V13.0749ZM11.9824 11.2153L2.27029 6.37659L11.9824 1.49784L21.6946 6.37659L11.9824 11.2153ZM21.4217 22.5924L21.861 21.2594L22.2937 22.5924H21.4217ZM21.861 18.3269C21.7183 18.3347 21.5767 18.2991 21.4547 18.2246C21.3327 18.1501 21.2362 18.0403 21.1779 17.9097C21.1196 17.7791 21.1023 17.6338 21.1282 17.4932C21.1542 17.3525 21.2222 17.223 21.3232 17.1219C21.4242 17.0207 21.5535 16.9527 21.694 16.9267C21.8345 16.9007 21.9796 16.9181 22.11 16.9764C22.2405 17.0348 22.3501 17.1314 22.4245 17.2536C22.4989 17.3757 22.5345 17.5175 22.5267 17.6604C22.5186 17.8345 22.4458 17.9994 22.3227 18.1226C22.1996 18.2459 22.0349 18.3187 21.861 18.3269Z" fill="white"/>
<path d="M11.9821 4.29053C11.6069 4.29053 11.2401 4.40193 10.9281 4.61065C10.6161 4.81937 10.373 5.11604 10.2294 5.46313C10.0858 5.81022 10.0482 6.19215 10.1214 6.56062C10.1946 6.92909 10.3753 7.26755 10.6406 7.5332C10.906 7.79885 11.244 7.97976 11.612 8.05306C11.98 8.12635 12.3615 8.08873 12.7081 7.94496C13.0548 7.80119 13.3511 7.55773 13.5596 7.24535C13.768 6.93298 13.8793 6.56573 13.8793 6.19004C13.8793 5.68626 13.6794 5.20311 13.3236 4.84688C12.9678 4.49065 12.4853 4.29053 11.9821 4.29053ZM11.9821 6.81655C11.8584 6.81001 11.7393 6.76723 11.6397 6.69351C11.54 6.6198 11.4642 6.51839 11.4216 6.4019C11.379 6.2854 11.3715 6.15895 11.4001 6.03823C11.4287 5.91752 11.492 5.80788 11.5823 5.72291C11.6726 5.63794 11.7858 5.5814 11.9079 5.56031C12.03 5.53921 12.1556 5.55449 12.2691 5.60425C12.3826 5.65401 12.479 5.73606 12.5463 5.8402C12.6136 5.94434 12.6489 6.06599 12.6478 6.19004C12.647 6.27551 12.629 6.35993 12.5947 6.43823C12.5605 6.51652 12.5108 6.58706 12.4486 6.6456C12.3864 6.70414 12.313 6.74947 12.2328 6.77884C12.1526 6.80822 12.0674 6.82105 11.9821 6.81655Z" fill="white"/>
</svg>
