<svg width="48" height="48" viewBox="0 0 48 48" fill="none" xmlns="http://www.w3.org/2000/svg">
<path d="M43.6036 16.7715C43.5927 16.6729 43.5817 16.5742 43.5707 16.4647C44.6008 15.2811 44.5351 13.473 43.4064 12.3552C43.2091 12.158 42.968 11.9827 42.716 11.8512C42.9023 11.4567 42.9899 11.0293 42.9899 10.5909C42.9899 8.92525 41.6311 7.5664 39.9654 7.5664C39.8778 7.55545 39.7901 7.5664 39.6915 7.57736C39.4942 6.09797 38.234 4.95829 36.7108 4.94734C36.0642 4.94734 35.4396 5.15555 34.9245 5.52813C34.6725 4.9035 34.2232 4.3775 33.6205 4.03779C32.9301 3.64328 32.1192 3.5337 31.3521 3.75287C30.7713 3.90628 30.2453 4.246 29.8617 4.69529C29.2919 4.03779 28.47 3.64328 27.5824 3.64328H27.5714C26.3002 3.64328 25.1606 4.46516 24.7332 5.62676C23.3634 5.42951 22.0155 6.20756 21.4785 7.5664C20.7881 7.61024 20.1416 7.8842 19.6375 8.35541C19.0457 8.90333 18.706 9.63755 18.6732 10.4485V10.58C18.6732 10.6238 18.6732 10.6676 18.6732 10.7115C17.402 11.5772 16.9856 13.2867 17.7417 14.6565C17.8842 14.9086 18.0595 15.1387 18.2567 15.3359C18.1691 15.8072 18.1033 16.2893 18.0704 16.7605C17.654 16.903 17.3581 17.2975 17.3581 17.7687L17.5335 19.3139H14.8487L12.9309 11.632C12.8104 11.1608 12.383 10.8211 11.9008 10.8211H5.36961C4.78881 10.832 4.30664 11.3032 4.30664 11.895V14.5031C4.30664 15.0949 4.78881 15.5661 5.36961 15.5661H9.10644L10.0489 19.3139H5.36961C4.78881 19.3139 4.30664 19.796 4.30664 20.3768V22.9849C4.30664 23.4452 4.60252 23.8397 5.0299 23.9822L6.46545 42.6553C6.50929 43.2033 6.96954 43.6416 7.52842 43.6416H17.5664C18.1143 43.6416 18.5855 43.2142 18.6293 42.6553L19.2649 34.3598L20.2293 42.6992C20.295 43.2361 20.7443 43.6416 21.2813 43.6416H40.3709C40.9078 43.6416 41.3681 43.2361 41.4229 42.6992L44.294 17.8893C44.3269 17.6043 44.2502 17.3304 44.0748 17.1112C43.9543 16.9468 43.7899 16.8372 43.6036 16.7715ZM10.9694 14.2401C10.8488 13.7689 10.4215 13.4401 9.93928 13.4401H6.43258V12.958H11.068L12.657 19.3139H12.2406L10.9694 14.2401ZM37.5217 18.8317L35.7355 41.5157H33.8944L34.4862 18.8317H37.5217ZM27.1879 18.8317L27.7796 41.5157H25.9386L24.1524 18.8317H27.1879ZM20.7991 22.9959V20.3878C20.7991 19.796 20.3169 19.3248 19.7361 19.3248H19.6813L19.6265 18.8426H22.0155L23.8017 41.5266H22.2347L20.2073 23.9493C20.558 23.763 20.7991 23.4014 20.7991 22.9959ZM20.9087 11.0402L20.8648 10.9197C20.6786 10.4594 20.8977 9.94439 21.358 9.75809C21.4676 9.71426 21.5771 9.69234 21.6867 9.69234C21.7854 9.69234 21.8949 9.71426 21.9936 9.74714C22.5415 9.94439 23.1552 9.65947 23.3524 9.11154C23.4072 8.96909 23.4182 8.81567 23.3962 8.62937C23.3962 8.38829 23.4949 8.16912 23.6593 7.99378C23.8236 7.82941 24.0538 7.73078 24.2948 7.73078C24.525 7.73078 24.7441 7.81845 24.9304 7.99378C25.2592 8.28966 25.7414 8.35541 26.1359 8.16912C26.6071 7.94995 26.8482 7.41299 26.7057 6.88698C26.629 6.66781 26.6509 6.42673 26.7495 6.20756C26.8591 5.99935 27.0345 5.83497 27.2646 5.75826C27.4947 5.68155 27.7248 5.70347 27.944 5.8021C28.1522 5.91168 28.3166 6.08701 28.4152 6.39385C28.5577 6.88698 29.0399 7.20478 29.5549 7.13903C29.8069 7.10615 30.0699 7.09519 30.3329 7.08423C30.7603 7.06232 31.1548 6.7774 31.2973 6.36098C31.374 6.13085 31.5274 5.95551 31.7356 5.84593C31.9438 5.73634 32.1849 5.72539 32.4041 5.79114C32.7438 5.90072 32.9739 6.1966 33.0068 6.55823C33.0506 6.99657 33.3465 7.35819 33.7739 7.47874C34.0917 7.5664 34.4095 7.67599 34.7163 7.79653C35.1656 7.97187 35.6807 7.82941 35.9765 7.42394C36.1409 7.19382 36.4149 7.05136 36.6998 7.05136C37.1929 7.05136 37.5984 7.45682 37.5984 7.93899C37.5984 8.07049 37.5655 8.21295 37.4998 8.3335C37.2916 8.77183 37.3902 9.29784 37.7628 9.61563C37.8176 9.65947 37.8614 9.7033 37.9162 9.75809L38.0039 9.84576C38.3874 10.1964 38.9901 10.2183 39.4065 9.87864C39.56 9.74713 39.7682 9.67043 39.9654 9.67043C40.4585 9.67043 40.8531 10.0649 40.8531 10.5581C40.8531 10.843 40.7215 11.106 40.4914 11.2813C40.075 11.5991 39.9545 12.1799 40.1955 12.6402C40.2284 12.7059 40.2613 12.7717 40.2942 12.8484L40.3709 13.0128C40.5462 13.3634 40.8969 13.5935 41.2914 13.6045C41.5325 13.6155 41.7516 13.7141 41.9051 13.8785C42.0694 14.0538 42.1571 14.273 42.1461 14.5141C42.1352 14.788 42.0037 15.0401 41.7845 15.2044C41.4667 15.4346 41.3133 15.8291 41.3681 16.2126C41.39 16.377 41.4119 16.5414 41.4338 16.6948H20.1745C20.2293 16.1797 20.3279 15.6647 20.4484 15.1496C20.569 14.6784 20.3498 14.1963 19.9224 13.9552C19.495 13.725 19.3307 13.1881 19.5608 12.7607C19.6813 12.5415 19.8786 12.3881 20.1197 12.3224C20.3936 12.2457 20.6238 12.0703 20.7662 11.8292C20.9087 11.5882 20.9744 11.3032 20.9087 11.0402ZM32.3493 18.8317L31.7575 41.5157H29.9165L29.3248 18.8317H32.3493ZM37.8614 41.5157L39.6476 18.8317H42.0366L39.4175 41.5157H37.8614ZM17.928 24.0589L17.5116 29.4066L16.3061 29.0011C15.0459 28.5737 13.6652 28.8148 12.6241 29.6367L10.7173 31.1161C9.98311 31.6859 8.94206 31.6202 8.28456 30.9517L7.64897 30.2942L7.16679 24.0479H9.04069V21.922H6.43258V21.4398H18.6732V21.922H17.3691V24.0479H17.928V24.0589ZM10.1475 36.8693C10.3338 36.8912 10.5201 36.9131 10.7173 36.9131C11.9008 36.9131 12.9967 36.3981 13.7528 35.4885C14.2459 34.8968 15.0569 34.6776 15.7692 34.9296L17.0623 35.3899L16.5911 41.5157H8.51468L8.13114 36.5844L10.1475 36.8693ZM12.12 34.1297C11.7145 34.6118 11.079 34.8639 10.4543 34.7653L7.97772 34.4146L7.87909 33.2311C9.20507 33.8886 10.816 33.7461 12.0323 32.8037L13.9391 31.3243C14.4213 30.9517 15.0678 30.8421 15.6486 31.0284L17.3581 31.5983L17.2376 33.1982L16.4924 32.9352C14.9254 32.3763 13.172 32.8695 12.12 34.1297Z" fill="#333333"/>
</svg>
