<svg width="48" height="48" viewBox="0 0 48 48" fill="none" xmlns="http://www.w3.org/2000/svg">
<path d="M36.7509 9.85374L29.4136 11.9565C29.4024 11.9565 29.4024 11.9565 29.3912 11.9677C28.6083 12.2361 28.0826 12.9855 28.0826 13.8132V15.9383H20.8348L29.1116 7.6615C29.5702 7.20291 29.5702 6.46471 29.1116 6.00613L27.0088 3.90337C25.9463 2.8408 24.2126 2.8408 23.1388 3.90337L20.9802 6.06206L19.8952 4.95475C18.6761 3.7356 16.6963 3.7356 15.4772 4.95475L11.171 9.26094C9.95184 10.4801 9.95184 12.4598 11.171 13.679L12.2783 14.7863L10.1196 16.945C9.05705 18.0075 9.05705 19.7412 10.1196 20.8149L12.2224 22.9177C12.681 23.3763 13.4192 23.3763 13.8777 22.9177L16.8417 19.9537V38.0285C16.8417 40.8247 19.1235 43.1064 21.9197 43.1064H34.2566C37.0529 43.1064 39.3346 40.8247 39.3346 38.0285C39.3346 37.2008 39.3346 12.1131 39.3346 11.7328C39.3346 10.3794 38.0148 9.42871 36.7509 9.85374ZM12.8264 10.9163L17.1325 6.61012C17.4345 6.30812 17.9379 6.30812 18.2399 6.61012L19.3472 7.71742L13.9337 13.1197L12.8264 12.0236C12.5244 11.7104 12.5244 11.2183 12.8264 10.9163ZM13.0389 20.4235L11.775 19.1484C11.6184 18.9918 11.6184 18.7457 11.775 18.6003C12.5915 17.7726 24.3916 5.97258 24.8166 5.55873C24.9732 5.40215 25.2192 5.40215 25.3646 5.55873L26.6397 6.83381L13.0389 20.4235ZM36.9857 38.0061C36.9857 39.5161 35.7554 40.7352 34.2566 40.7352H21.9197C20.4097 40.7352 19.1906 39.5049 19.1906 38.0061V18.276H36.9969V38.0061H36.9857ZM36.9857 15.9942L30.4202 15.9271V14.0928L36.9857 12.2473V15.9942Z" fill="#333333"/>
<path d="M22.8704 37.693C23.5191 37.693 24.0448 37.1673 24.0448 36.5185V22.4927C24.0448 21.844 23.5191 21.3183 22.8704 21.3183C22.2217 21.3183 21.696 21.844 21.696 22.4927V36.5185C21.7072 37.1673 22.2217 37.693 22.8704 37.693Z" fill="#333333"/>
<path d="M28.0826 37.693C28.7313 37.693 29.257 37.1673 29.257 36.5185V22.4927C29.257 21.844 28.7313 21.3183 28.0826 21.3183C27.4338 21.3183 26.9082 21.844 26.9082 22.4927V36.5185C26.9193 37.1673 27.4338 37.693 28.0826 37.693Z" fill="#333333"/>
<path d="M33.2947 37.693C33.9435 37.693 34.4692 37.1673 34.4692 36.5185V22.4927C34.4692 21.844 33.9435 21.3183 33.2947 21.3183C32.646 21.3183 32.1203 21.844 32.1203 22.4927V36.5185C32.1315 37.1673 32.646 37.693 33.2947 37.693Z" fill="#333333"/>
</svg>
