<svg width="48" height="48" viewBox="0 0 48 48" fill="none" xmlns="http://www.w3.org/2000/svg">
<path fill-rule="evenodd" clip-rule="evenodd" d="M22.3664 3.6416C19.634 3.6416 17.3524 5.9232 17.3524 8.65557C17.3524 10.176 18.0245 11.5335 19.0909 12.4439C18.0245 13.3543 17.3524 14.7118 17.3524 16.2322C17.3524 18.9646 19.634 21.2462 22.3664 21.2462C22.3975 21.2462 22.4286 21.2459 22.4596 21.2453C22.3996 21.3821 22.3664 21.5332 22.3664 21.6921V41.3029H16.7953V35.2609C18.0848 34.9412 19.1791 34.0837 19.9748 32.9735C20.9921 31.5539 21.5866 29.6496 21.5866 27.5972C21.5866 25.5449 20.9921 23.6405 19.9748 22.221C18.9588 20.8034 17.4559 19.7977 15.6813 19.7977C13.9067 19.7977 12.4038 20.8034 11.3878 22.221C10.3705 23.6405 9.77595 25.5449 9.77595 27.5972C9.77595 29.6496 10.3705 31.5539 11.3878 32.9735C12.1833 34.0836 13.2775 34.941 14.5669 35.2608V41.3029H5.43062C4.81526 41.3029 4.31641 41.8018 4.31641 42.4172C4.31641 43.0325 4.81526 43.5314 5.43062 43.5314H43.0911C43.7065 43.5314 44.2053 43.0325 44.2053 42.4172C44.2053 41.8018 43.7065 41.3029 43.0911 41.3029H39.8598V21.6921C39.8598 21.5253 39.8231 21.3671 39.7574 21.225C42.2835 20.989 44.3164 18.8114 44.3164 16.2322C44.3164 16.209 44.3157 16.1859 44.3142 16.1627C44.2251 14.7362 43.5683 13.4145 42.5178 12.4943C43.6191 11.5841 44.3164 10.2043 44.3164 8.65557C44.3164 5.9232 42.0348 3.6416 39.3024 3.6416C37.0509 3.6416 35.1563 5.15156 34.5051 7.20709H27.1686C26.541 5.16378 24.729 3.6416 22.3664 3.6416ZM16.7953 32.8976V25.8149C16.7953 25.1996 16.2964 24.7007 15.6811 24.7007C15.0657 24.7007 14.5669 25.1996 14.5669 25.8149V32.8973C14.0782 32.6549 13.6101 32.2488 13.1991 31.6754C12.4824 30.6753 12.0044 29.237 12.0044 27.5972C12.0044 25.9574 12.4824 24.5191 13.1991 23.5191C13.9172 22.5171 14.8098 22.0262 15.6813 22.0262C16.5528 22.0262 17.4454 22.5171 18.1635 23.5191C18.8802 24.5191 19.3582 25.9574 19.3582 27.5972C19.3582 29.237 18.8802 30.6753 18.1635 31.6754C17.7524 32.249 17.2841 32.6551 16.7953 32.8976ZM37.6313 41.3029V27.4055C35.7607 26.9024 33.4654 26.5951 30.9459 26.5951C28.5521 26.5951 26.4403 26.8139 24.6864 27.3298C24.6559 27.3387 24.6254 27.3463 24.5948 27.3526V41.3029H37.6313ZM37.6313 23.5058V25.1065C35.673 24.6369 33.3915 24.3667 30.9459 24.3667C28.6551 24.3667 26.5008 24.5558 24.5948 25.0442V23.4529C24.6254 23.4466 24.6559 23.439 24.6864 23.43C26.4403 22.9142 28.5521 22.6953 30.9459 22.6953C33.4654 22.6953 35.7607 23.0027 37.6313 23.5058ZM30.9459 20.4669C28.6046 20.4669 26.4058 20.6645 24.469 21.1773C24.4102 21.0647 24.3328 20.9635 24.2409 20.8776C25.6264 20.3091 26.7044 19.1306 27.1637 17.6807H34.5002C34.991 19.2786 36.206 20.5578 37.8423 21.0395C37.7992 21.0992 37.7618 21.1632 37.731 21.2309C35.7506 20.7464 33.4331 20.4669 30.9459 20.4669ZM19.5808 8.65557C19.5808 7.15392 20.8647 5.87003 22.3664 5.87003C23.8689 5.87003 24.9933 6.95533 25.1587 8.44435C25.2214 9.00862 25.6984 9.43552 26.2661 9.43552H35.4027C35.9704 9.43552 36.4474 9.00862 36.5101 8.44435C36.6733 6.97571 37.8917 5.87003 39.3024 5.87003C40.8041 5.87003 42.088 7.15393 42.088 8.65557C42.088 10.0097 41.1366 11.1126 39.8771 11.3488C39.3623 11.4453 38.9843 11.8872 38.9687 12.4107C38.9531 12.9341 39.3041 13.3978 39.8122 13.5248C41.0915 13.8447 41.9915 14.9616 42.0878 16.2666C42.0684 17.7534 40.7926 19.0178 39.3024 19.0178C37.7999 19.0178 36.6755 17.9325 36.5101 16.4435C36.4474 15.8792 35.9704 15.4523 35.4027 15.4523H26.2661C25.6984 15.4523 25.2214 15.8792 25.1587 16.4435C24.9955 17.9121 23.7771 19.0178 22.3664 19.0178C20.8647 19.0178 19.5808 17.7339 19.5808 16.2322C19.5808 14.8781 20.5322 13.7752 21.7918 13.539C22.3187 13.4402 22.7006 12.9801 22.7006 12.4439C22.7006 11.9077 22.3187 11.4476 21.7918 11.3488C20.5322 11.1126 19.5808 10.0097 19.5808 8.65557ZM6.54484 36.5109C6.54484 35.5879 7.29311 34.8396 8.21616 34.8396C9.13921 34.8396 9.88748 35.5879 9.88748 36.5109C9.88748 37.434 9.13921 38.1823 8.21616 38.1823C7.29311 38.1823 6.54484 37.434 6.54484 36.5109ZM8.21616 32.6112C6.06239 32.6112 4.31641 34.3572 4.31641 36.5109C4.31641 38.6647 6.06239 40.4107 8.21616 40.4107C10.3699 40.4107 12.1159 38.6647 12.1159 36.5109C12.1159 34.3572 10.3699 32.6112 8.21616 32.6112Z" fill="#333333"/>
</svg>
