<svg width="48" height="49" viewBox="0 0 48 49" fill="none" xmlns="http://www.w3.org/2000/svg">
<mask id="mask0_18259_74726" style="mask-type:alpha" maskUnits="userSpaceOnUse" x="0" y="0" width="48" height="49">
<rect y="0.5" width="48" height="48" fill="#D9D9D9"/>
</mask>
<g mask="url(#mask0_18259_74726)">
<path d="M7.79252 37.5C6.73985 37.5 5.92018 37.1423 5.33352 36.427C4.74718 35.7117 4.53468 34.777 4.69602 33.623L7.05802 17.2195C7.28569 15.6465 8.01119 14.3 9.23452 13.18C10.4579 12.06 11.863 11.5 13.45 11.5H34.6C36.1697 11.5 37.5674 12.06 38.793 13.18C40.0187 14.3 40.7517 15.6465 40.992 17.2195L43.304 33.623C43.4654 34.777 43.2515 35.7117 42.6625 36.427C42.0732 37.1423 41.2613 37.5 40.227 37.5C39.6013 37.5 39.0732 37.4038 38.6425 37.2115C38.2115 37.0192 37.8384 36.7653 37.523 36.45L32.2075 31.1345H15.7925L10.477 36.45C10.1617 36.7653 9.78852 37.0192 9.35752 37.2115C8.92685 37.4038 8.40519 37.5 7.79252 37.5ZM8.65402 35.0115L14.8 28.8655H33.2L39.346 35.0115C39.487 35.1398 39.7685 35.2707 40.1905 35.404C40.5019 35.404 40.739 35.2668 40.902 34.9925C41.0647 34.7178 41.1192 34.4242 41.0655 34.1115L38.717 17.5655C38.5497 16.4628 38.0652 15.5545 37.2635 14.8405C36.4622 14.1265 35.5744 13.7695 34.6 13.7695H13.4C12.4257 13.7695 11.5379 14.1265 10.7365 14.8405C9.93485 15.5545 9.45669 16.4628 9.30202 17.5655L6.93452 34.1115C6.88085 34.4242 6.93585 34.7178 7.09952 34.9925C7.26352 35.2668 7.50735 35.404 7.83102 35.404C8.03868 35.404 8.31302 35.2732 8.65402 35.0115ZM34.7305 26.3075C35.2129 26.3075 35.6347 26.1268 35.996 25.7655C36.3577 25.4038 36.5385 24.982 36.5385 24.5C36.5385 24.018 36.3577 23.5962 35.996 23.2345C35.6347 22.8732 35.2129 22.6925 34.7305 22.6925C34.2485 22.6925 33.8269 22.8732 33.4655 23.2345C33.1039 23.5962 32.923 24.018 32.923 24.5C32.923 24.982 33.1039 25.4038 33.4655 25.7655C33.8269 26.1268 34.2485 26.3075 34.7305 26.3075ZM30.548 19.9425C31.0237 19.9425 31.4455 19.7617 31.8135 19.4C32.1815 19.0383 32.3655 18.6165 32.3655 18.1345C32.3655 17.6525 32.1815 17.2308 31.8135 16.8695C31.4455 16.5078 31.0269 16.327 30.5575 16.327C30.0755 16.327 29.6539 16.5078 29.2925 16.8695C28.9309 17.2308 28.75 17.6525 28.75 18.1345C28.75 18.6165 28.9309 19.0383 29.2925 19.4C29.6539 19.7617 30.0724 19.9425 30.548 19.9425ZM15.4425 22.327V25C15.4425 25.289 15.5392 25.5278 15.7325 25.7165C15.9259 25.9055 16.1705 26 16.4665 26C16.7569 26 16.9952 25.9055 17.1815 25.7165C17.3682 25.5278 17.4615 25.289 17.4615 25V22.327H20.1345C20.4195 22.327 20.6607 22.2302 20.858 22.0365C21.0554 21.8432 21.154 21.5987 21.154 21.303C21.154 21.0127 21.0554 20.7742 20.858 20.5875C20.6607 20.4008 20.4195 20.3075 20.1345 20.3075H17.4615V17.6345C17.4615 17.3495 17.3657 17.1083 17.174 16.911C16.9827 16.714 16.7404 16.6155 16.447 16.6155C16.154 16.6155 15.9134 16.714 15.725 16.911C15.5367 17.1083 15.4425 17.3495 15.4425 17.6345V20.3075H12.7695C12.4805 20.3075 12.2415 20.4033 12.0525 20.595C11.8639 20.7867 11.7695 21.029 11.7695 21.322C11.7695 21.615 11.8639 21.8557 12.0525 22.044C12.2415 22.2327 12.4805 22.327 12.7695 22.327H15.4425Z" fill="#333333"/>
</g>
</svg>
